<svg xmlns="http://www.w3.org/2000/svg" width="20.309" height="21.25" viewBox="0 0 20.309 21.25"><g transform="translate(-1.25 -1.25)"><path d="M16.25,22.5a1.75,1.75,0,1,0-1.75-1.75,1.75,1.75,0,0,0,1.75,1.75Z" fill="#fff"/><path d="M8.25,22.5A1.75,1.75,0,1,0,6.5,20.75,1.75,1.75,0,0,0,8.25,22.5Z" fill="#fff"/><path d="M4.84,3.94l-.2,2.45a.793.793,0,0,0,.8.86H20.75a.8.8,0,0,0,.8-.74A2.957,2.957,0,0,0,18.56,3.3H6.27a2.727,2.727,0,0,0-.61-1.21,2.659,2.659,0,0,0-1.92-.84H2a.75.75,0,0,0,0,1.5H3.74a1.1,1.1,0,0,1,1.1,1.19Z" fill="#fff"/><path d="M20.51,8.75H5.17a.8.8,0,0,0-.8.73l-.36,4.35A2.922,2.922,0,0,0,6.92,17H18.04a3,3,0,0,0,2.93-2.73L21.3,9.6a.782.782,0,0,0-.79-.85Z" fill="#fff"/></g></svg>