<svg id="feature-1" xmlns="http://www.w3.org/2000/svg" width="40" height="40" viewBox="0 0 40 40">
  <path id="Path_102" data-name="Path 102" d="M0,0H40V40H0Z" fill="none"/>
  <path id="Path_103" data-name="Path 103" d="M8,4H6.333A3.333,3.333,0,0,0,3,7.333v5.833H3a9.167,9.167,0,1,0,18.333,0V7.333A3.333,3.333,0,0,0,18,4H16.333" transform="translate(2 2.667)" fill="none" stroke="#fff" stroke-linecap="round" stroke-linejoin="round" stroke-width="2"/>
  <path id="Path_104" data-name="Path 104" d="M8,17a10,10,0,1,0,20,0V12" transform="translate(5.333 8)" fill="none" stroke="#fff" stroke-linecap="round" stroke-linejoin="round" stroke-width="2"/>
  <path id="Path_105" data-name="Path 105" d="M11,3V6.333" transform="translate(7.333 2)" fill="none" stroke="#fff" stroke-linecap="round" stroke-linejoin="round" stroke-width="2"/>
  <path id="Path_106" data-name="Path 106" d="M6,3V6.333" transform="translate(4 2)" fill="none" stroke="#fff" stroke-linecap="round" stroke-linejoin="round" stroke-width="2"/>
  <circle id="Ellipse_12" data-name="Ellipse 12" cx="3.333" cy="3.333" r="3.333" transform="translate(30 13.333)" fill="none" stroke="#fff" stroke-linecap="round" stroke-linejoin="round" stroke-width="2"/>
</svg>
