<svg id="phone-svg" xmlns="http://www.w3.org/2000/svg" xmlns:xlink="http://www.w3.org/1999/xlink" width="40" height="40" viewBox="0 0 40 40">
  <defs>
    <linearGradient id="linear-gradient" x1="2.239" y1="-0.876" x2="-0.477" y2="1.506" gradientUnits="objectBoundingBox">
      <stop offset="0" stop-color="#a00d13"/>
      <stop offset="1" stop-color="#c5983c"/>
    </linearGradient>
  </defs>
  <path id="Path_119" data-name="Path 119" d="M0,0H40V40H0Z" fill="none"/>
  <path id="Rectangle_134" data-name="Rectangle 134" d="M1-.75H15.667A1.752,1.752,0,0,1,17.417,1V25.667a1.752,1.752,0,0,1-1.75,1.75H1a1.752,1.752,0,0,1-1.75-1.75V1A1.752,1.752,0,0,1,1-.75ZM15.667,25.917a.25.25,0,0,0,.25-.25V1a.25.25,0,0,0-.25-.25H1A.25.25,0,0,0,.75,1V25.667a.25.25,0,0,0,.25.25Z" transform="translate(11.667 6.667)" fill="url(#linear-gradient)"/>
  <path id="Line_7" data-name="Line 7" d="M3.333.75H0A.75.75,0,0,1-.75,0,.75.75,0,0,1,0-.75H3.333a.75.75,0,0,1,.75.75A.75.75,0,0,1,3.333.75Z" transform="translate(18.333 8.333)" fill="url(#linear-gradient)"/>
  <path id="Line_8" data-name="Line 8" d="M0,.767A.75.75,0,0,1-.75.017V0A.75.75,0,0,1,0-.75.75.75,0,0,1,.75,0V.017A.75.75,0,0,1,0,.767Z" transform="translate(20 28.333)" fill="url(#linear-gradient)"/>
</svg>
