<svg id="rating-star" xmlns="http://www.w3.org/2000/svg" width="41.859" height="40" viewBox="0 0 41.859 40">
  <path id="Path_97" data-name="Path 97" d="M41.812,26.03a.915.915,0,0,0-.743-.61l-13.18-1.747L21.745,11.356a.948.948,0,0,0-1.629,0L13.972,23.673.791,25.421a.91.91,0,0,0-.524,1.545l9.666,9.666L7.3,49.8a.911.911,0,0,0,1.3.994L20.931,44.63,33.263,50.8a.911.911,0,0,0,1.3-.994L31.929,36.632,41.6,26.966A.918.918,0,0,0,41.812,26.03ZM21.839,39.544a.909.909,0,0,1-.5.814l-7.711,3.855a.911.911,0,0,1-1.3-.994l1.556-7.784L8.053,29.6a.91.91,0,0,1,.524-1.545l7.786-1.032,3.751-7.517a.91.91,0,0,1,1.725.406Z" transform="translate(-0.001 -10.893)" fill="#fff"/>
</svg>
