<svg xmlns="http://www.w3.org/2000/svg" xmlns:xlink="http://www.w3.org/1999/xlink" width="20" height="16.256" viewBox="0 0 20 16.256">
  <defs>
    <linearGradient id="linear-gradient" x1="2.239" y1="-0.876" x2="-0.477" y2="1.506" gradientUnits="objectBoundingBox">
      <stop offset="0" stop-color="#a00d13"/>
      <stop offset="1" stop-color="#c5983c"/>
    </linearGradient>
  </defs>
  <path id="twitter-svg" d="M19.96,4.931a8.349,8.349,0,0,1-2.353.645,4.127,4.127,0,0,0,1.8-2.269,8.552,8.552,0,0,1-2.607.987,4.1,4.1,0,0,0-7.094,2.8,4.163,4.163,0,0,0,.108.934,11.6,11.6,0,0,1-8.45-4.271A4.036,4.036,0,0,0,.809,5.82,4.1,4.1,0,0,0,2.632,9.231,4.074,4.074,0,0,1,.777,8.72V8.77a4.1,4.1,0,0,0,3.288,4.023,4.224,4.224,0,0,1-1.077.143,4.177,4.177,0,0,1-.765-.072,4.119,4.119,0,0,0,3.837,2.848A8.23,8.23,0,0,1,.975,17.463,8.132,8.132,0,0,1,0,17.408,11.66,11.66,0,0,0,6.3,19.25,11.581,11.581,0,0,0,17.961,7.593c0-.173,0-.348-.013-.524A8.208,8.208,0,0,0,20,4.947Z" transform="translate(0.002 -2.994)" fill="url(#linear-gradient)"/>
</svg>
