<svg xmlns="http://www.w3.org/2000/svg" xmlns:xlink="http://www.w3.org/1999/xlink" width="19.91" height="20" viewBox="0 0 19.91 20">
  <defs>
    <linearGradient id="linear-gradient" x1="2.239" y1="-0.876" x2="-0.477" y2="1.506" gradientUnits="objectBoundingBox">
      <stop offset="0" stop-color="#a00d13"/>
      <stop offset="1" stop-color="#c5983c"/>
    </linearGradient>
  </defs>
  <path id="whatsapp-svg" d="M17,2.908A9.817,9.817,0,0,0,9.992,0,9.918,9.918,0,0,0,1.4,14.864L0,20l5.255-1.377a9.916,9.916,0,0,0,4.737,1.206H10A9.907,9.907,0,0,0,17,2.908ZM9.992,18.151A8.216,8.216,0,0,1,5.8,17l-.3-.18-3.117.817L3.212,14.6l-.195-.314a8.234,8.234,0,1,1,6.975,3.867Zm4.519-6.167c-.246-.124-1.462-.722-1.691-.807s-.394-.124-.556.124-.641.807-.784.969-.29.185-.537.063A6.762,6.762,0,0,1,8.952,11.1,7.557,7.557,0,0,1,7.574,9.385c-.142-.247-.014-.38.11-.5.109-.11.246-.29.37-.432A1.58,1.58,0,0,0,8.3,8.036.461.461,0,0,0,8.282,7.6c-.062-.124-.556-1.345-.765-1.837s-.4-.419-.556-.425-.309-.009-.475-.009a.911.911,0,0,0-.661.309,2.775,2.775,0,0,0-.864,2.067,4.8,4.8,0,0,0,1.012,2.561,11.01,11.01,0,0,0,4.229,3.74,13.776,13.776,0,0,0,1.411.522,3.4,3.4,0,0,0,1.557.1,2.565,2.565,0,0,0,1.672-1.179,2.073,2.073,0,0,0,.142-1.179c-.061-.1-.227-.166-.475-.29Z" transform="translate(0 0)" fill="url(#linear-gradient)"/>
</svg>
