<svg xmlns="http://www.w3.org/2000/svg" width="658.214" height="717.254" viewBox="0 0 658.214 717.254">
  <path id="logo-shape" d="M1033.362,856.775c-8.466-7.387-3.031-50.823,24.125-190.379,12.529-64.371,49.552-159,48.636-245.133s-33.7-132.731-63.8-160.152c-9.44-8.6-60.041-47.676-123.392-49.6-91.083-2.762-132.14,64.282-255.5,55.861a419.582,419.582,0,0,1-147.741-37.5c33.979,5.1,96.282,6.515,155.823.369s117.337-40.674,174.5-65.006c73.591-31.366,147.594-37.66,220.741,1.551,61.682,33.094,114.218,107.039,106.374,188.149-8.657,90.388-38.045,196.5-63.53,282.615C1085.868,717.041,1034.9,856.036,1033.362,856.775Z" transform="translate(-515.69 -139.521)" fill="#c5983c"/>
</svg>
